# xmcd
#
# Track frame offsets:
#	150
#	14138
#	30070
#
# Disc length: 556 seconds
#
# Revision: 0
# Processed by: cddbd v1.5.1PL0 Copyright (c) Steve Scherf et al.
# Submitted via: dBpowerAMP V4.0
#
DISCID=17022a03
DTITLE=The Blood Arm - Say Yes
DYEAR=2005
DGENRE=Avantgarde
TTITLE0=Say Yes
TTITLE1=Do I Have Your Attention? [Demo Mix]
TTITLE2=Can I Unwind? [Live]
EXTD=3trk single bought June 02 2005\n_solarian
EXTT0=
EXTT1=
EXTT2=
PLAYORDER=
